<svg class="diagram-root" style="background: #f5f6f6" xmlns="http://www.w3.org/2000/svg" xmlns:xlink="http://www.w3.org/1999/xlink"><style>.diagram-root { font-family: "Helvetica Neue", sans-serif; font-size: 12px; } .t { overflow: visible; } .t-bg { y: 40; fill: #fff;   } .th { fill: #005aa0;   } .tht { fill: #fff; font-size: 14px;  } .tf { fill: #323c46; overflow: visible; } .tf.pk { fill: #005aa0; font-weight: bold; } .tf.fk { font-weight: bold; } .ty { fill: #adb1b5; font-weight: normal; text-anchor: end; } .r { fill: transparent; stroke: #c3c3c3; stroke-width: 1; } .l { stroke: 1; } .i { fill: #c2c7ce; stroke: #c2c7ce; } .i.ix { fill: #afb3b6; stroke: #000; } .fa { fill: transparent; overflow: visible; } .fa .bg.hover { fill: #f7f7f7; } .c { cy: 12; r: 4; stroke: #d2d2dc; fill: #d2d2dc; } .hr { fill: transparent; stroke: #323c46; stroke-opacity: 0.035; stroke-width: 13; } .dc { stroke: #fa5a3c; fill: #fa5a3c; } .x { stroke: white; stroke-width: 1; } .hl .th { fill: #1b9bff; } .hl .tht {  } .fhl .bg { fill: #e7f4ff; } .fhls .bg {  } .r.hl { stroke: #1b9bff; } .dim { opacity: 0.25; }</style><g class="drawing-wrapper" transform="translate(115.93, 349.52) scale(1,1)"><g class="rs"></g><g class="hrs"></g><g class="ts"><svg width="150.39" height="100" x="51.66" y="-319.52" id="h475896179" class="t"><rect height="40" width="150.39" class="th"></rect><text x="13" y="25" class="tht">departments</text><rect height="60" width="150.39" class="t-bg"></rect><text x="13" y="61" class="tf pk">dept_no<tspan x="137.39" class="ty">int</tspan></text><path d="M7,14A2,2 0 0,1 5,12A2,2 0 0,1 7,10A2,2 0 0,1 9,12A2,2 0 0,1 7,14M12.65,10C11.83,7.67 9.61,6 7, 6A6, 6 0 0, 0 1, 12A6, 6 0 0, 0 7, 18C9.61, 18 11.83, 16.33 12.65, 14H17V18H21V14H23V10H12.65Z" class="i pk" transform="translate(104.71617187499999, 48) scale(0.65)"></path><text x="13" y="86" class="tf">dept_name<tspan x="137.39" class="ty">string</tspan></text><path d="M814.545 581.818v-23.273H535.273v-93.09h-46.546v93.09H209.455v139.637H256V605.09h232.727v93.09h46.546v-93.09H768v93.09h46.545V581.819zM674.91 465.455H349.091V139.636h325.818v325.819zM325.82 884.364H139.635V698.182h186.182v186.182z m279.272 0H418.909V698.182h186.182v186.182z m279.273 0H698.182V698.182h186.182v186.182zM395.636 418.909h232.728V186.182H395.636v232.727zM186.182 837.82h93.09v-93.092h-93.09v93.091z m279.273 0h93.09v-93.092h-93.09v93.091z m279.272 0h93.091v-93.092h-93.09v93.091z" class="i ix" transform="translate(93.04624999999999, 75) scale(0.014)"></path></svg><svg width="122.04" height="150" x="-30.91" y="-179.77" id="h1090417462" class="t"><rect height="40" width="122.04" class="th"></rect><text x="13" y="25" class="tht">dept_emp</text><rect height="110" width="122.04" class="t-bg"></rect><text x="13" y="61" class="tf pk">emp_no<tspan x="109.04" class="ty">int</tspan></text><path d="M7,14A2,2 0 0,1 5,12A2,2 0 0,1 7,10A2,2 0 0,1 9,12A2,2 0 0,1 7,14M12.65,10C11.83,7.67 9.61,6 7, 6A6, 6 0 0, 0 1, 12A6, 6 0 0, 0 7, 18C9.61, 18 11.83, 16.33 12.65, 14H17V18H21V14H23V10H12.65Z" class="i pk" transform="translate(76.366171875, 48) scale(0.65)"></path><text x="13" y="86" class="tf">dept_no<tspan x="109.04" class="ty">int</tspan></text><text x="13" y="111" class="tf">from_date<tspan x="109.04" class="ty">int</tspan></text><text x="13" y="136" class="tf">to_Date<tspan x="109.04" class="ty">int</tspan></text></svg><svg width="122.05" height="150" x="266.36" y="-190.91" id="h1676682957" class="t"><rect height="40" width="122.05" class="th"></rect><text x="13" y="25" class="tht">dept_manager</text><rect height="110" width="122.05" class="t-bg"></rect><text x="13" y="61" class="tf pk">dept_no<tspan x="109.05" class="ty">int</tspan></text><path d="M7,14A2,2 0 0,1 5,12A2,2 0 0,1 7,10A2,2 0 0,1 9,12A2,2 0 0,1 7,14M12.65,10C11.83,7.67 9.61,6 7, 6A6, 6 0 0, 0 1, 12A6, 6 0 0, 0 7, 18C9.61, 18 11.83, 16.33 12.65, 14H17V18H21V14H23V10H12.65Z" class="i pk" transform="translate(76.376171875, 48) scale(0.65)"></path><text x="13" y="86" class="tf">emp_no<tspan x="109.05" class="ty">int</tspan></text><text x="13" y="111" class="tf">from_date<tspan x="109.05" class="ty">int</tspan></text><text x="13" y="136" class="tf">to_date<tspan x="109.05" class="ty">int</tspan></text></svg><svg width="131.37" height="200" x="-93.93" y="19.43" id="h1639608377" class="t"><rect height="40" width="131.37" class="th"></rect><text x="13" y="25" class="tht">employees</text><rect height="160" width="131.37" class="t-bg"></rect><text x="13" y="61" class="tf pk">emp_no<tspan x="118.37" class="ty">int</tspan></text><path d="M7,14A2,2 0 0,1 5,12A2,2 0 0,1 7,10A2,2 0 0,1 9,12A2,2 0 0,1 7,14M12.65,10C11.83,7.67 9.61,6 7, 6A6, 6 0 0, 0 1, 12A6, 6 0 0, 0 7, 18C9.61, 18 11.83, 16.33 12.65, 14H17V18H21V14H23V10H12.65Z" class="i pk" transform="translate(85.696171875, 48) scale(0.65)"></path><text x="13" y="86" class="tf">birth_date<tspan x="118.37" class="ty">int</tspan></text><text x="13" y="111" class="tf">first_name<tspan x="118.37" class="ty">string</tspan></text><text x="13" y="136" class="tf">last_name<tspan x="118.37" class="ty">string</tspan></text><text x="13" y="161" class="tf">gender<tspan x="118.37" class="ty">string</tspan></text><text x="13" y="186" class="tf">hire_date<tspan x="118.37" class="ty">int</tspan></text></svg><svg width="122.04" height="150" x="80.16" y="164.64" id="h2472833127" class="t"><rect height="40" width="122.04" class="th"></rect><text x="13" y="25" class="tht">salaries</text><rect height="110" width="122.04" class="t-bg"></rect><text x="13" y="61" class="tf pk">emp_no<tspan x="109.04" class="ty">int</tspan></text><path d="M7,14A2,2 0 0,1 5,12A2,2 0 0,1 7,10A2,2 0 0,1 9,12A2,2 0 0,1 7,14M12.65,10C11.83,7.67 9.61,6 7, 6A6, 6 0 0, 0 1, 12A6, 6 0 0, 0 7, 18C9.61, 18 11.83, 16.33 12.65, 14H17V18H21V14H23V10H12.65Z" class="i pk" transform="translate(76.366171875, 48) scale(0.65)"></path><text x="13" y="86" class="tf">salary<tspan x="109.04" class="ty">int</tspan></text><text x="13" y="111" class="tf">from_date<tspan x="109.04" class="ty">int</tspan></text><text x="13" y="136" class="tf">to_date<tspan x="109.04" class="ty">int</tspan></text></svg><svg width="122.04" height="150" x="294.2" y="110.34" id="h311790747" class="t"><rect height="40" width="122.04" class="th"></rect><text x="13" y="25" class="tht">titles</text><rect height="110" width="122.04" class="t-bg"></rect><text x="13" y="61" class="tf pk">emp_no<tspan x="109.04" class="ty">int</tspan></text><path d="M7,14A2,2 0 0,1 5,12A2,2 0 0,1 7,10A2,2 0 0,1 9,12A2,2 0 0,1 7,14M12.65,10C11.83,7.67 9.61,6 7, 6A6, 6 0 0, 0 1, 12A6, 6 0 0, 0 7, 18C9.61, 18 11.83, 16.33 12.65, 14H17V18H21V14H23V10H12.65Z" class="i pk" transform="translate(76.366171875, 48) scale(0.65)"></path><text x="13" y="86" class="tf">title<tspan x="109.04" class="ty">string</tspan></text><text x="13" y="111" class="tf">from_date<tspan x="109.04" class="ty">int</tspan></text><text x="13" y="136" class="tf">to_date<tspan x="109.04" class="ty">int</tspan></text></svg></g></g><text class="qdbd-link" x="10" y="20">www.quickdatabasediagrams.com</text></svg>