<svg class="diagram-root" style="background: #f5f6f6" xmlns="http://www.w3.org/2000/svg" xmlns:xlink="http://www.w3.org/1999/xlink"><style>.diagram-root { font-family: "Helvetica Neue", sans-serif; font-size: 12px; } .t { overflow: visible; } .t-bg { y: 40; fill: #fff;   } .th { fill: #005aa0;   } .tht { fill: #fff; font-size: 14px;  } .tf { fill: #323c46; overflow: visible; } .tf.pk { fill: #005aa0; font-weight: bold; } .tf.fk { font-weight: bold; } .ty { fill: #adb1b5; font-weight: normal; text-anchor: end; } .r { fill: transparent; stroke: #c3c3c3; stroke-width: 1; } .l { stroke: 1; } .i { fill: #c2c7ce; stroke: #c2c7ce; } .i.ix { fill: #afb3b6; stroke: #000; } .fa { fill: transparent; overflow: visible; } .fa .bg.hover { fill: #f7f7f7; } .c { cy: 12; r: 4; stroke: #d2d2dc; fill: #d2d2dc; } .hr { fill: transparent; stroke: #323c46; stroke-opacity: 0.035; stroke-width: 13; } .dc { stroke: #fa5a3c; fill: #fa5a3c; } .x { stroke: white; stroke-width: 1; } .hl .th { fill: #1b9bff; } .hl .tht {  } .fhl .bg { fill: #e7f4ff; } .fhls .bg {  } .r.hl { stroke: #1b9bff; } .dim { opacity: 0.25; }</style><g class="drawing-wrapper" transform="translate(10.22666666666666, 545.8477777777778) scale(1,1)"><g class="rs"><path d="M 627.22 -431.69 m -1, 0 a 1,1 0 1,0 2,0 a 1,1 0 1,0 -2,0 M 627.22 -431.69 m -0.5, 0 a 0.5,0.5 0 1,0 1,0 a 0.5,0.5 0 1,0 -1,0  M627.22 -431.69 L627.22 -431.69 615.22 -431.69 M 627.22 -425.69 m -1, 0 a 1,1 0 1,0 2,0 a 1,1 0 1,0 -2,0 M 627.22 -425.69 m -0.5, 0 a 0.5,0.5 0 1,0 1,0 a 0.5,0.5 0 1,0 -1,0  M627.22 -425.69 L627.22 -425.69 620.22 -431.69 627.22 -437.69 M 627.22 -437.69 m -1, 0 a 1,1 0 1,0 2,0 a 1,1 0 1,0 -2,0 M 627.22 -437.69 m -0.5, 0 a 0.5,0.5 0 1,0 1,0 a 0.5,0.5 0 1,0 -1,0  M615.22 -431.69 Q 497.87 -431.69, 380.52 -316.2 T 145.82 -200.71333333333342 M 133.82 -200.71333333333342 m -1, 0 a 1,1 0 1,0 2,0 a 1,1 0 1,0 -2,0 M 133.82 -200.71333333333342 m -0.5, 0 a 0.5,0.5 0 1,0 1,0 a 0.5,0.5 0 1,0 -1,0  M133.82 -200.71333333333342 L133.82 -200.71333333333342 145.82 -200.71333333333342 M139.82 -194.71333333333342 L139.82 -194.71333333333342 139.82 -206.71333333333342" id="h1950675103" class="r"></path><path d="M 290.02 228.47999999999996 m -1, 0 a 1,1 0 1,0 2,0 a 1,1 0 1,0 -2,0 M 290.02 228.47999999999996 m -0.5, 0 a 0.5,0.5 0 1,0 1,0 a 0.5,0.5 0 1,0 -1,0  M290.02 228.47999999999996 L290.02 228.47999999999996 302.02 228.47999999999996 M 290.02 234.47999999999996 m -1, 0 a 1,1 0 1,0 2,0 a 1,1 0 1,0 -2,0 M 290.02 234.47999999999996 m -0.5, 0 a 0.5,0.5 0 1,0 1,0 a 0.5,0.5 0 1,0 -1,0  M290.02 234.47999999999996 L290.02 234.47999999999996 297.02 228.47999999999996 290.02 222.47999999999996 M 290.02 222.47999999999996 m -1, 0 a 1,1 0 1,0 2,0 a 1,1 0 1,0 -2,0 M 290.02 222.47999999999996 m -0.5, 0 a 0.5,0.5 0 1,0 1,0 a 0.5,0.5 0 1,0 -1,0  M302.02 228.47999999999996 Q 449.05 228.47999999999996, 596.07 217.28 T 890.1177777777777 206.08666666666667 M 902.1177777777777 206.08666666666667 m -1, 0 a 1,1 0 1,0 2,0 a 1,1 0 1,0 -2,0 M 902.1177777777777 206.08666666666667 m -0.5, 0 a 0.5,0.5 0 1,0 1,0 a 0.5,0.5 0 1,0 -1,0  M902.1177777777777 206.08666666666667 L902.1177777777777 206.08666666666667 890.1177777777777 206.08666666666667 M896.1177777777777 212.08666666666667 L896.1177777777777 212.08666666666667 896.1177777777777 200.08666666666667" id="h3083074667" class="r"></path><path d="M 290.02 253.47999999999996 m -1, 0 a 1,1 0 1,0 2,0 a 1,1 0 1,0 -2,0 M 290.02 253.47999999999996 m -0.5, 0 a 0.5,0.5 0 1,0 1,0 a 0.5,0.5 0 1,0 -1,0  M290.02 253.47999999999996 L290.02 253.47999999999996 302.02 253.47999999999996 M 290.02 259.47999999999996 m -1, 0 a 1,1 0 1,0 2,0 a 1,1 0 1,0 -2,0 M 290.02 259.47999999999996 m -0.5, 0 a 0.5,0.5 0 1,0 1,0 a 0.5,0.5 0 1,0 -1,0  M290.02 259.47999999999996 L290.02 259.47999999999996 297.02 253.47999999999996 290.02 247.47999999999996 M 290.02 247.47999999999996 m -1, 0 a 1,1 0 1,0 2,0 a 1,1 0 1,0 -2,0 M 290.02 247.47999999999996 m -0.5, 0 a 0.5,0.5 0 1,0 1,0 a 0.5,0.5 0 1,0 -1,0  M302.02 253.47999999999996 Q 449.05 253.47999999999996, 596.07 242.28 T 890.1177777777777 231.08666666666667 M 902.1177777777777 231.08666666666667 m -1, 0 a 1,1 0 1,0 2,0 a 1,1 0 1,0 -2,0 M 902.1177777777777 231.08666666666667 m -0.5, 0 a 0.5,0.5 0 1,0 1,0 a 0.5,0.5 0 1,0 -1,0  M902.1177777777777 231.08666666666667 L902.1177777777777 231.08666666666667 890.1177777777777 231.08666666666667 M896.1177777777777 237.08666666666667 L896.1177777777777 237.08666666666667 896.1177777777777 225.08666666666667" id="h3408004435" class="r"></path><path d="M 133.82 -200.71333333333342 m -1, 0 a 1,1 0 1,0 2,0 a 1,1 0 1,0 -2,0 M 133.82 -200.71333333333342 m -0.5, 0 a 0.5,0.5 0 1,0 1,0 a 0.5,0.5 0 1,0 -1,0  M133.82 -200.71333333333342 L133.82 -200.71333333333342 145.82 -200.71333333333342 M 133.82 -194.71333333333342 m -1, 0 a 1,1 0 1,0 2,0 a 1,1 0 1,0 -2,0 M 133.82 -194.71333333333342 m -0.5, 0 a 0.5,0.5 0 1,0 1,0 a 0.5,0.5 0 1,0 -1,0  M133.82 -194.71333333333342 L133.82 -194.71333333333342 140.82 -200.71333333333342 133.82 -206.71333333333342 M 133.82 -206.71333333333342 m -1, 0 a 1,1 0 1,0 2,0 a 1,1 0 1,0 -2,0 M 133.82 -206.71333333333342 m -0.5, 0 a 0.5,0.5 0 1,0 1,0 a 0.5,0.5 0 1,0 -1,0  M145.82 -200.71333333333342 C 445.74 -200.71333333333342, 352.02 203.47999999999996, 302.02 203.47999999999996 M 290.02 203.47999999999996 m -1, 0 a 1,1 0 1,0 2,0 a 1,1 0 1,0 -2,0 M 290.02 203.47999999999996 m -0.5, 0 a 0.5,0.5 0 1,0 1,0 a 0.5,0.5 0 1,0 -1,0  M290.02 203.47999999999996 L290.02 203.47999999999996 302.02 203.47999999999996 M296.02 209.47999999999996 L296.02 209.47999999999996 296.02 197.47999999999996" id="h3335357949" class="r"></path><path d="M 133.82 -175.71333333333342 m -1, 0 a 1,1 0 1,0 2,0 a 1,1 0 1,0 -2,0 M 133.82 -175.71333333333342 m -0.5, 0 a 0.5,0.5 0 1,0 1,0 a 0.5,0.5 0 1,0 -1,0  M133.82 -175.71333333333342 L133.82 -175.71333333333342 145.82 -175.71333333333342 M 133.82 -169.71333333333342 m -1, 0 a 1,1 0 1,0 2,0 a 1,1 0 1,0 -2,0 M 133.82 -169.71333333333342 m -0.5, 0 a 0.5,0.5 0 1,0 1,0 a 0.5,0.5 0 1,0 -1,0  M133.82 -169.71333333333342 L133.82 -169.71333333333342 140.82 -175.71333333333342 133.82 -181.71333333333342 M 133.82 -181.71333333333342 m -1, 0 a 1,1 0 1,0 2,0 a 1,1 0 1,0 -2,0 M 133.82 -181.71333333333342 m -0.5, 0 a 0.5,0.5 0 1,0 1,0 a 0.5,0.5 0 1,0 -1,0  M145.82 -175.71333333333342 C 445.74 -175.71333333333342, 352.02 178.47999999999996, 302.02 178.47999999999996 M 290.02 178.47999999999996 m -1, 0 a 1,1 0 1,0 2,0 a 1,1 0 1,0 -2,0 M 290.02 178.47999999999996 m -0.5, 0 a 0.5,0.5 0 1,0 1,0 a 0.5,0.5 0 1,0 -1,0  M290.02 178.47999999999996 L290.02 178.47999999999996 302.02 178.47999999999996 M296.02 184.47999999999996 L296.02 184.47999999999996 296.02 172.47999999999996" id="h1990908834" class="r"></path><path d="M 133.82 -150.71333333333342 m -1, 0 a 1,1 0 1,0 2,0 a 1,1 0 1,0 -2,0 M 133.82 -150.71333333333342 m -0.5, 0 a 0.5,0.5 0 1,0 1,0 a 0.5,0.5 0 1,0 -1,0  M133.82 -150.71333333333342 L133.82 -150.71333333333342 145.82 -150.71333333333342 M 133.82 -144.71333333333342 m -1, 0 a 1,1 0 1,0 2,0 a 1,1 0 1,0 -2,0 M 133.82 -144.71333333333342 m -0.5, 0 a 0.5,0.5 0 1,0 1,0 a 0.5,0.5 0 1,0 -1,0  M133.82 -144.71333333333342 L133.82 -144.71333333333342 140.82 -150.71333333333342 133.82 -156.71333333333342 M 133.82 -156.71333333333342 m -1, 0 a 1,1 0 1,0 2,0 a 1,1 0 1,0 -2,0 M 133.82 -156.71333333333342 m -0.5, 0 a 0.5,0.5 0 1,0 1,0 a 0.5,0.5 0 1,0 -1,0  M145.82 -150.71333333333342 Q 354.15 -150.71333333333342, 562.48 -178.77 T 979.13 -206.82999999999998 M 991.13 -206.82999999999998 m -1, 0 a 1,1 0 1,0 2,0 a 1,1 0 1,0 -2,0 M 991.13 -206.82999999999998 m -0.5, 0 a 0.5,0.5 0 1,0 1,0 a 0.5,0.5 0 1,0 -1,0  M991.13 -206.82999999999998 L991.13 -206.82999999999998 979.13 -206.82999999999998 M985.13 -200.82999999999998 L985.13 -200.82999999999998 985.13 -212.82999999999998" id="h1592397074" class="r"></path><path d="M 133.82 -125.71333333333342 m -1, 0 a 1,1 0 1,0 2,0 a 1,1 0 1,0 -2,0 M 133.82 -125.71333333333342 m -0.5, 0 a 0.5,0.5 0 1,0 1,0 a 0.5,0.5 0 1,0 -1,0  M133.82 -125.71333333333342 L133.82 -125.71333333333342 145.82 -125.71333333333342 M 133.82 -119.71333333333342 m -1, 0 a 1,1 0 1,0 2,0 a 1,1 0 1,0 -2,0 M 133.82 -119.71333333333342 m -0.5, 0 a 0.5,0.5 0 1,0 1,0 a 0.5,0.5 0 1,0 -1,0  M133.82 -119.71333333333342 L133.82 -119.71333333333342 140.82 -125.71333333333342 133.82 -131.71333333333342 M 133.82 -131.71333333333342 m -1, 0 a 1,1 0 1,0 2,0 a 1,1 0 1,0 -2,0 M 133.82 -131.71333333333342 m -0.5, 0 a 0.5,0.5 0 1,0 1,0 a 0.5,0.5 0 1,0 -1,0  M145.82 -125.71333333333342 Q 354.15 -125.71333333333342, 562.48 -153.77 T 979.13 -181.82999999999998 M 991.13 -181.82999999999998 m -1, 0 a 1,1 0 1,0 2,0 a 1,1 0 1,0 -2,0 M 991.13 -181.82999999999998 m -0.5, 0 a 0.5,0.5 0 1,0 1,0 a 0.5,0.5 0 1,0 -1,0  M991.13 -181.82999999999998 L991.13 -181.82999999999998 979.13 -181.82999999999998 M985.13 -175.82999999999998 L985.13 -175.82999999999998 985.13 -187.82999999999998" id="h1120118387" class="r"></path><path d="M 27.88 -458.85 m -1, 0 a 1,1 0 1,0 2,0 a 1,1 0 1,0 -2,0 M 27.88 -458.85 m -0.5, 0 a 0.5,0.5 0 1,0 1,0 a 0.5,0.5 0 1,0 -1,0  M27.88 -458.85 L27.88 -458.85 15.879999999999999 -458.85 M 27.88 -452.85 m -1, 0 a 1,1 0 1,0 2,0 a 1,1 0 1,0 -2,0 M 27.88 -452.85 m -0.5, 0 a 0.5,0.5 0 1,0 1,0 a 0.5,0.5 0 1,0 -1,0  M27.88 -452.85 L27.88 -452.85 20.88 -458.85 27.88 -464.85 M 27.88 -464.85 m -1, 0 a 1,1 0 1,0 2,0 a 1,1 0 1,0 -2,0 M 27.88 -464.85 m -0.5, 0 a 0.5,0.5 0 1,0 1,0 a 0.5,0.5 0 1,0 -1,0  M15.879999999999999 -458.85 C -59.89066666666666 -458.85, -50.22666666666666 -175.71333333333342, -0.22666666666665947 -175.71333333333342 M 11.77333333333334 -175.71333333333342 m -1, 0 a 1,1 0 1,0 2,0 a 1,1 0 1,0 -2,0 M 11.77333333333334 -175.71333333333342 m -0.5, 0 a 0.5,0.5 0 1,0 1,0 a 0.5,0.5 0 1,0 -1,0  M11.77333333333334 -175.71333333333342 L11.77333333333334 -175.71333333333342 -0.22666666666665947 -175.71333333333342 M5.7733333333333405 -169.71333333333342 L5.7733333333333405 -169.71333333333342 5.7733333333333405 -181.71333333333342" id="h1915938444" class="r"></path><path d="M 991.13 -256.83 m -1, 0 a 1,1 0 1,0 2,0 a 1,1 0 1,0 -2,0 M 991.13 -256.83 m -0.5, 0 a 0.5,0.5 0 1,0 1,0 a 0.5,0.5 0 1,0 -1,0  M991.13 -256.83 L991.13 -256.83 979.13 -256.83 M 991.13 -250.82999999999998 m -1, 0 a 1,1 0 1,0 2,0 a 1,1 0 1,0 -2,0 M 991.13 -250.82999999999998 m -0.5, 0 a 0.5,0.5 0 1,0 1,0 a 0.5,0.5 0 1,0 -1,0  M991.13 -250.82999999999998 L991.13 -250.82999999999998 984.13 -256.83 991.13 -262.83 M 991.13 -262.83 m -1, 0 a 1,1 0 1,0 2,0 a 1,1 0 1,0 -2,0 M 991.13 -262.83 m -0.5, 0 a 0.5,0.5 0 1,0 1,0 a 0.5,0.5 0 1,0 -1,0  M979.13 -256.83 Q 770.81 -256.83, 562.48 -216.27 T 145.82 -175.71333333333342 M 133.82 -175.71333333333342 m -1, 0 a 1,1 0 1,0 2,0 a 1,1 0 1,0 -2,0 M 133.82 -175.71333333333342 m -0.5, 0 a 0.5,0.5 0 1,0 1,0 a 0.5,0.5 0 1,0 -1,0  M133.82 -175.71333333333342 L133.82 -175.71333333333342 145.82 -175.71333333333342 M139.82 -169.71333333333342 L139.82 -169.71333333333342 139.82 -181.71333333333342" id="h1778622336" class="r"></path><path d="M 991.13 -206.82999999999998 m -1, 0 a 1,1 0 1,0 2,0 a 1,1 0 1,0 -2,0 M 991.13 -206.82999999999998 m -0.5, 0 a 0.5,0.5 0 1,0 1,0 a 0.5,0.5 0 1,0 -1,0  M991.13 -206.82999999999998 L991.13 -206.82999999999998 979.13 -206.82999999999998 M 991.13 -200.82999999999998 m -1, 0 a 1,1 0 1,0 2,0 a 1,1 0 1,0 -2,0 M 991.13 -200.82999999999998 m -0.5, 0 a 0.5,0.5 0 1,0 1,0 a 0.5,0.5 0 1,0 -1,0  M991.13 -200.82999999999998 L991.13 -200.82999999999998 984.13 -206.82999999999998 991.13 -212.82999999999998 M 991.13 -212.82999999999998 m -1, 0 a 1,1 0 1,0 2,0 a 1,1 0 1,0 -2,0 M 991.13 -212.82999999999998 m -0.5, 0 a 0.5,0.5 0 1,0 1,0 a 0.5,0.5 0 1,0 -1,0  M979.13 -206.82999999999998 Q 809.86 -206.82999999999998, 640.58 10.82 T 302.02 228.47999999999996 M 290.02 228.47999999999996 m -1, 0 a 1,1 0 1,0 2,0 a 1,1 0 1,0 -2,0 M 290.02 228.47999999999996 m -0.5, 0 a 0.5,0.5 0 1,0 1,0 a 0.5,0.5 0 1,0 -1,0  M290.02 228.47999999999996 L290.02 228.47999999999996 302.02 228.47999999999996 M296.02 234.47999999999996 L296.02 234.47999999999996 296.02 222.47999999999996" id="h3766010712" class="r"></path><path d="M 991.13 -181.82999999999998 m -1, 0 a 1,1 0 1,0 2,0 a 1,1 0 1,0 -2,0 M 991.13 -181.82999999999998 m -0.5, 0 a 0.5,0.5 0 1,0 1,0 a 0.5,0.5 0 1,0 -1,0  M991.13 -181.82999999999998 L991.13 -181.82999999999998 979.13 -181.82999999999998 M 991.13 -175.82999999999998 m -1, 0 a 1,1 0 1,0 2,0 a 1,1 0 1,0 -2,0 M 991.13 -175.82999999999998 m -0.5, 0 a 0.5,0.5 0 1,0 1,0 a 0.5,0.5 0 1,0 -1,0  M991.13 -175.82999999999998 L991.13 -175.82999999999998 984.13 -181.82999999999998 991.13 -187.82999999999998 M 991.13 -187.82999999999998 m -1, 0 a 1,1 0 1,0 2,0 a 1,1 0 1,0 -2,0 M 991.13 -187.82999999999998 m -0.5, 0 a 0.5,0.5 0 1,0 1,0 a 0.5,0.5 0 1,0 -1,0  M979.13 -181.82999999999998 Q 809.86 -181.82999999999998, 640.58 35.82 T 302.02 253.47999999999996 M 290.02 253.47999999999996 m -1, 0 a 1,1 0 1,0 2,0 a 1,1 0 1,0 -2,0 M 290.02 253.47999999999996 m -0.5, 0 a 0.5,0.5 0 1,0 1,0 a 0.5,0.5 0 1,0 -1,0  M290.02 253.47999999999996 L290.02 253.47999999999996 302.02 253.47999999999996 M296.02 259.47999999999996 L296.02 259.47999999999996 296.02 247.47999999999996" id="h1382353415" class="r"></path><path d="M 902.1177777777777 156.08666666666667 m -1, 0 a 1,1 0 1,0 2,0 a 1,1 0 1,0 -2,0 M 902.1177777777777 156.08666666666667 m -0.5, 0 a 0.5,0.5 0 1,0 1,0 a 0.5,0.5 0 1,0 -1,0  M902.1177777777777 156.08666666666667 L902.1177777777777 156.08666666666667 890.1177777777777 156.08666666666667 M 902.1177777777777 162.08666666666667 m -1, 0 a 1,1 0 1,0 2,0 a 1,1 0 1,0 -2,0 M 902.1177777777777 162.08666666666667 m -0.5, 0 a 0.5,0.5 0 1,0 1,0 a 0.5,0.5 0 1,0 -1,0  M902.1177777777777 162.08666666666667 L902.1177777777777 162.08666666666667 895.1177777777777 156.08666666666667 902.1177777777777 150.08666666666667 M 902.1177777777777 150.08666666666667 m -1, 0 a 1,1 0 1,0 2,0 a 1,1 0 1,0 -2,0 M 902.1177777777777 150.08666666666667 m -0.5, 0 a 0.5,0.5 0 1,0 1,0 a 0.5,0.5 0 1,0 -1,0  M890.1177777777777 156.08666666666667 Q 743.09 156.08666666666667, 596.07 167.28 T 302.02 178.47999999999996 M 290.02 178.47999999999996 m -1, 0 a 1,1 0 1,0 2,0 a 1,1 0 1,0 -2,0 M 290.02 178.47999999999996 m -0.5, 0 a 0.5,0.5 0 1,0 1,0 a 0.5,0.5 0 1,0 -1,0  M290.02 178.47999999999996 L290.02 178.47999999999996 302.02 178.47999999999996 M296.02 184.47999999999996 L296.02 184.47999999999996 296.02 172.47999999999996" id="h766979126" class="r"></path><path d="M 1024.16 206.08666666666667 m -1, 0 a 1,1 0 1,0 2,0 a 1,1 0 1,0 -2,0 M 1024.16 206.08666666666667 m -0.5, 0 a 0.5,0.5 0 1,0 1,0 a 0.5,0.5 0 1,0 -1,0  M1024.16 206.08666666666667 L1024.16 206.08666666666667 1036.16 206.08666666666667 M 1024.16 212.08666666666667 m -1, 0 a 1,1 0 1,0 2,0 a 1,1 0 1,0 -2,0 M 1024.16 212.08666666666667 m -0.5, 0 a 0.5,0.5 0 1,0 1,0 a 0.5,0.5 0 1,0 -1,0  M1024.16 212.08666666666667 L1024.16 212.08666666666667 1031.16 206.08666666666667 1024.16 200.08666666666667 M 1024.16 200.08666666666667 m -1, 0 a 1,1 0 1,0 2,0 a 1,1 0 1,0 -2,0 M 1024.16 200.08666666666667 m -0.5, 0 a 0.5,0.5 0 1,0 1,0 a 0.5,0.5 0 1,0 -1,0  M1036.16 206.08666666666667 C 1228.576 206.08666666666667, 1175.17 -206.82999999999998, 1125.17 -206.82999999999998 M 1113.17 -206.82999999999998 m -1, 0 a 1,1 0 1,0 2,0 a 1,1 0 1,0 -2,0 M 1113.17 -206.82999999999998 m -0.5, 0 a 0.5,0.5 0 1,0 1,0 a 0.5,0.5 0 1,0 -1,0  M1113.17 -206.82999999999998 L1113.17 -206.82999999999998 1125.17 -206.82999999999998 M1119.17 -200.82999999999998 L1119.17 -200.82999999999998 1119.17 -212.82999999999998" id="h2441909545" class="r"></path><path d="M 1024.16 231.08666666666667 m -1, 0 a 1,1 0 1,0 2,0 a 1,1 0 1,0 -2,0 M 1024.16 231.08666666666667 m -0.5, 0 a 0.5,0.5 0 1,0 1,0 a 0.5,0.5 0 1,0 -1,0  M1024.16 231.08666666666667 L1024.16 231.08666666666667 1036.16 231.08666666666667 M 1024.16 237.08666666666667 m -1, 0 a 1,1 0 1,0 2,0 a 1,1 0 1,0 -2,0 M 1024.16 237.08666666666667 m -0.5, 0 a 0.5,0.5 0 1,0 1,0 a 0.5,0.5 0 1,0 -1,0  M1024.16 237.08666666666667 L1024.16 237.08666666666667 1031.16 231.08666666666667 1024.16 225.08666666666667 M 1024.16 225.08666666666667 m -1, 0 a 1,1 0 1,0 2,0 a 1,1 0 1,0 -2,0 M 1024.16 225.08666666666667 m -0.5, 0 a 0.5,0.5 0 1,0 1,0 a 0.5,0.5 0 1,0 -1,0  M1036.16 231.08666666666667 C 1228.576 231.08666666666667, 1175.17 -181.82999999999998, 1125.17 -181.82999999999998 M 1113.17 -181.82999999999998 m -1, 0 a 1,1 0 1,0 2,0 a 1,1 0 1,0 -2,0 M 1113.17 -181.82999999999998 m -0.5, 0 a 0.5,0.5 0 1,0 1,0 a 0.5,0.5 0 1,0 -1,0  M1113.17 -181.82999999999998 L1113.17 -181.82999999999998 1125.17 -181.82999999999998 M1119.17 -175.82999999999998 L1119.17 -175.82999999999998 1119.17 -187.82999999999998" id="h1221701184" class="r"></path></g><g class="hrs"></g><g class="ts"><svg width="150.39" height="100" x="627.22" y="-488.69" id="h475896179" class="t"><rect height="40" width="150.39" class="th"></rect><text x="13" y="25" class="tht">departments</text><rect height="60" width="150.39" class="t-bg"></rect><text x="13" y="61" class="tf pk">dept_no<tspan x="137.39" class="ty">int</tspan></text><path d="M7,14A2,2 0 0,1 5,12A2,2 0 0,1 7,10A2,2 0 0,1 9,12A2,2 0 0,1 7,14M12.65,10C11.83,7.67 9.61,6 7, 6A6, 6 0 0, 0 1, 12A6, 6 0 0, 0 7, 18C9.61, 18 11.83, 16.33 12.65, 14H17V18H21V14H23V10H12.65Z" class="i pk" transform="translate(104.71617187499999, 48) scale(0.65)"></path><text x="13" y="86" class="tf">dept_name<tspan x="137.39" class="ty">string</tspan></text><path d="M814.545 581.818v-23.273H535.273v-93.09h-46.546v93.09H209.455v139.637H256V605.09h232.727v93.09h46.546v-93.09H768v93.09h46.545V581.819zM674.91 465.455H349.091V139.636h325.818v325.819zM325.82 884.364H139.635V698.182h186.182v186.182z m279.272 0H418.909V698.182h186.182v186.182z m279.273 0H698.182V698.182h186.182v186.182zM395.636 418.909h232.728V186.182H395.636v232.727zM186.182 837.82h93.09v-93.092h-93.09v93.091z m279.273 0h93.09v-93.092h-93.09v93.091z m279.272 0h93.091v-93.092h-93.09v93.091z" class="i ix" transform="translate(93.04624999999999, 75) scale(0.014)"></path></svg><svg width="131.37" height="200" x="27.88" y="-515.85" id="h1639608377" class="t"><rect height="40" width="131.37" class="th"></rect><text x="13" y="25" class="tht">employees</text><rect height="160" width="131.37" class="t-bg"></rect><text x="13" y="61" class="tf pk">emp_no<tspan x="118.37" class="ty">int</tspan></text><path d="M7,14A2,2 0 0,1 5,12A2,2 0 0,1 7,10A2,2 0 0,1 9,12A2,2 0 0,1 7,14M12.65,10C11.83,7.67 9.61,6 7, 6A6, 6 0 0, 0 1, 12A6, 6 0 0, 0 7, 18C9.61, 18 11.83, 16.33 12.65, 14H17V18H21V14H23V10H12.65Z" class="i pk" transform="translate(85.696171875, 48) scale(0.65)"></path><text x="13" y="86" class="tf">birth_date<tspan x="118.37" class="ty">int</tspan></text><text x="13" y="111" class="tf">first_name<tspan x="118.37" class="ty">string</tspan></text><text x="13" y="136" class="tf">last_name<tspan x="118.37" class="ty">string</tspan></text><text x="13" y="161" class="tf">gender<tspan x="118.37" class="ty">string</tspan></text><text x="13" y="186" class="tf">hire_date<tspan x="118.37" class="ty">int</tspan></text></svg><svg width="122.04" height="150" x="991.13" y="-313.83" id="h2472833127" class="t"><rect height="40" width="122.04" class="th"></rect><text x="13" y="25" class="tht">salaries</text><rect height="110" width="122.04" class="t-bg"></rect><text x="13" y="61" class="tf pk">emp_no<tspan x="109.04" class="ty">int</tspan></text><path d="M7,14A2,2 0 0,1 5,12A2,2 0 0,1 7,10A2,2 0 0,1 9,12A2,2 0 0,1 7,14M12.65,10C11.83,7.67 9.61,6 7, 6A6, 6 0 0, 0 1, 12A6, 6 0 0, 0 7, 18C9.61, 18 11.83, 16.33 12.65, 14H17V18H21V14H23V10H12.65Z" class="i pk" transform="translate(76.366171875, 48) scale(0.65)"></path><text x="13" y="86" class="tf">salary<tspan x="109.04" class="ty">int</tspan></text><text x="13" y="111" class="tf fk">from_date<tspan x="109.04" class="ty">int</tspan></text><text x="13" y="136" class="tf fk">to_date<tspan x="109.04" class="ty">int</tspan></text></svg><svg width="122.05" height="150" x="11.77333333333334" y="-257.7133333333334" id="h1676682957" class="t"><rect height="40" width="122.05" class="th"></rect><text x="13" y="25" class="tht">dept_manager</text><rect height="110" width="122.05" class="t-bg"></rect><text x="13" y="61" class="tf pk">dept_no<tspan x="109.05" class="ty">int</tspan></text><path d="M7,14A2,2 0 0,1 5,12A2,2 0 0,1 7,10A2,2 0 0,1 9,12A2,2 0 0,1 7,14M12.65,10C11.83,7.67 9.61,6 7, 6A6, 6 0 0, 0 1, 12A6, 6 0 0, 0 7, 18C9.61, 18 11.83, 16.33 12.65, 14H17V18H21V14H23V10H12.65Z" class="i pk" transform="translate(76.376171875, 48) scale(0.65)"></path><text x="13" y="86" class="tf fk">emp_no<tspan x="109.05" class="ty">int</tspan></text><text x="13" y="111" class="tf fk">from_date<tspan x="109.05" class="ty">int</tspan></text><text x="13" y="136" class="tf fk">to_date<tspan x="109.05" class="ty">int</tspan></text></svg><svg width="122.04" height="150" x="167.97666666666703" y="121.47999999999998" id="h1090417462" class="t"><rect height="40" width="122.04" class="th"></rect><text x="13" y="25" class="tht">dept_emp</text><rect height="110" width="122.04" class="t-bg"></rect><text x="13" y="61" class="tf pk">emp_no<tspan x="109.04" class="ty">int</tspan></text><path d="M7,14A2,2 0 0,1 5,12A2,2 0 0,1 7,10A2,2 0 0,1 9,12A2,2 0 0,1 7,14M12.65,10C11.83,7.67 9.61,6 7, 6A6, 6 0 0, 0 1, 12A6, 6 0 0, 0 7, 18C9.61, 18 11.83, 16.33 12.65, 14H17V18H21V14H23V10H12.65Z" class="i pk" transform="translate(76.366171875, 48) scale(0.65)"></path><text x="13" y="86" class="tf fk">dept_no<tspan x="109.04" class="ty">int</tspan></text><text x="13" y="111" class="tf fk">from_date<tspan x="109.04" class="ty">int</tspan></text><text x="13" y="136" class="tf fk">to_Date<tspan x="109.04" class="ty">int</tspan></text></svg><svg width="122.04" height="150" x="902.1177777777777" y="99.08666666666667" id="h311790747" class="t"><rect height="40" width="122.04" class="th"></rect><text x="13" y="25" class="tht">titles</text><rect height="110" width="122.04" class="t-bg"></rect><text x="13" y="61" class="tf pk">emp_no<tspan x="109.04" class="ty">int</tspan></text><path d="M7,14A2,2 0 0,1 5,12A2,2 0 0,1 7,10A2,2 0 0,1 9,12A2,2 0 0,1 7,14M12.65,10C11.83,7.67 9.61,6 7, 6A6, 6 0 0, 0 1, 12A6, 6 0 0, 0 7, 18C9.61, 18 11.83, 16.33 12.65, 14H17V18H21V14H23V10H12.65Z" class="i pk" transform="translate(76.366171875, 48) scale(0.65)"></path><text x="13" y="86" class="tf">title<tspan x="109.04" class="ty">string</tspan></text><text x="13" y="111" class="tf fk">from_date<tspan x="109.04" class="ty">int</tspan></text><text x="13" y="136" class="tf fk">to_date<tspan x="109.04" class="ty">int</tspan></text></svg></g></g><text class="qdbd-link" x="10" y="20">www.quickdatabasediagrams.com</text></svg>